<svg width="21" height="21" viewBox="0 0 21 21" fill="none" xmlns="http://www.w3.org/2000/svg">
<path d="M19.7067 1.20686C19.3162 0.816339 18.683 0.816338 18.2925 1.20686L10.7857 8.71363L3.27894 1.20686C2.88842 0.816338 2.25525 0.816338 1.86473 1.20686L1.20711 1.86448C0.816583 2.25501 0.816583 2.88818 1.20711 3.2787L8.71388 10.7855L1.20711 18.2922C0.816582 18.6828 0.816583 19.3159 1.20711 19.7065L1.86473 20.3641C2.25525 20.7546 2.88842 20.7546 3.27894 20.3641L10.7857 12.8573L18.2925 20.3641C18.683 20.7546 19.3162 20.7546 19.7067 20.3641L20.3643 19.7065C20.7548 19.3159 20.7548 18.6828 20.3643 18.2922L12.8576 10.7855L20.3643 3.2787C20.7548 2.88817 20.7548 2.25501 20.3643 1.86449L19.7067 1.20686Z" fill="#B9C6D6"/>
</svg>
